<?xml version="1.0" encoding="utf-8"?><svg width="236" height="208" viewBox="0 0 236 208" xmlns="http://www.w3.org/2000/svg" xmlns:xlink="http://www.w3.org/1999/xlink"><view id="arrow-back" viewBox="200 118 10 14"/><svg width="10" height="14" fill="none" viewBox="-2 -2 10 14" x="200" y="118" xmlns="http://www.w3.org/2000/svg"><path fill-rule="evenodd" clip-rule="evenodd" d="M5.707.293a1 1 0 010 1.414L2.414 5l3.293 3.293a1 1 0 01-1.414 1.414l-4-4a1 1 0 010-1.414l4-4a1 1 0 011.414 0z" fill="#8F8F8F"/></svg><view id="arrow-btn-gray" viewBox="121 164 36 37"/><svg width="36" height="37" fill="none" viewBox="-2 -2 36 37" x="121" y="164" xmlns="http://www.w3.org/2000/svg"><path fill-rule="evenodd" clip-rule="evenodd" d="M13.746 9.792l5.702 5.701c.35.35.35.918 0 1.268l-5.702 5.701a.896.896 0 11-1.267-1.267l4.173-4.172H0V15.23h16.652l-4.173-4.172a.896.896 0 011.268-1.267z" fill="#fff"/><path opacity=".5" fill-rule="evenodd" clip-rule="evenodd" d="M7.793 28.384c-.483.414-.991.8-1.522 1.154a16.051 16.051 0 008.96 2.716c8.906 0 16.127-7.22 16.127-16.127S24.138 0 15.23 0c-3.315 0-6.397 1-8.96 2.716.53.355 1.039.74 1.522 1.154a14.268 14.268 0 017.438-2.078c7.917 0 14.335 6.418 14.335 14.335 0 7.917-6.418 14.335-14.335 14.335-2.723 0-5.27-.76-7.438-2.078z" fill="#fff"/></svg><view id="arrow-btn-gray-hover" viewBox="157 164 36 37"/><svg width="36" height="37" fill="none" viewBox="-2 -2 36 37" x="157" y="164" xmlns="http://www.w3.org/2000/svg"><path fill-rule="evenodd" clip-rule="evenodd" d="M13.746 9.792l5.702 5.701c.35.35.35.918 0 1.268l-5.702 5.701a.896.896 0 11-1.267-1.267l4.173-4.172H0V15.23h16.652l-4.173-4.172a.896.896 0 011.268-1.267z" fill="#fff"/><path fill-rule="evenodd" clip-rule="evenodd" d="M7.793 28.384c-.483.414-.991.8-1.522 1.154a16.051 16.051 0 008.96 2.716c8.906 0 16.127-7.22 16.127-16.127S24.138 0 15.23 0c-3.315 0-6.397 1-8.96 2.716.53.355 1.039.74 1.522 1.154a14.268 14.268 0 017.438-2.078c7.917 0 14.335 6.418 14.335 14.335 0 7.917-6.418 14.335-14.335 14.335-2.723 0-5.27-.76-7.438-2.078z" fill="#fff"/></svg><view id="arrow-btn-red" viewBox="200 0 36 37"/><svg width="36" height="37" fill="none" viewBox="-2 -2 36 37" x="200" xmlns="http://www.w3.org/2000/svg"><path fill-rule="evenodd" clip-rule="evenodd" d="M13.746 9.792l5.702 5.701c.35.35.35.918 0 1.268l-5.702 5.701a.896.896 0 11-1.267-1.267l4.173-4.172H0V15.23h16.652l-4.173-4.172a.896.896 0 011.268-1.267z" fill="#1E1E1E"/><path fill-rule="evenodd" clip-rule="evenodd" d="M7.793 28.384c-.483.414-.991.8-1.522 1.154a16.051 16.051 0 008.96 2.716c8.906 0 16.127-7.22 16.127-16.127S24.138 0 15.23 0c-3.315 0-6.397 1-8.96 2.716.53.355 1.039.74 1.522 1.154a14.268 14.268 0 017.438-2.078c7.917 0 14.335 6.418 14.335 14.335 0 7.917-6.418 14.335-14.335 14.335-2.723 0-5.27-.76-7.438-2.078z" fill="#B82800"/></svg><view id="arrow-btn-red-hover" viewBox="200 37 36 37"/><svg width="36" height="37" fill="none" viewBox="-2 -2 36 37" x="200" y="37" xmlns="http://www.w3.org/2000/svg"><path fill-rule="evenodd" clip-rule="evenodd" d="M13.746 9.792l5.702 5.701c.35.35.35.918 0 1.268l-5.702 5.701a.896.896 0 11-1.267-1.267l4.173-4.172H0V15.23h16.652l-4.173-4.172a.896.896 0 011.268-1.267z" fill="#B82800"/><path fill-rule="evenodd" clip-rule="evenodd" d="M7.793 28.384c-.483.414-.991.8-1.522 1.154a16.051 16.051 0 008.96 2.716c8.906 0 16.127-7.22 16.127-16.127S24.138 0 15.23 0c-3.315 0-6.397 1-8.96 2.716.53.355 1.039.74 1.522 1.154a14.268 14.268 0 017.438-2.078c7.917 0 14.335 6.418 14.335 14.335 0 7.917-6.418 14.335-14.335 14.335-2.723 0-5.27-.76-7.438-2.078z" fill="#B82800"/></svg><view id="check" viewBox="200 98 20 20"/><svg width="20" height="20" fill="none" viewBox="-2 -2 20 20" x="200" y="98" xmlns="http://www.w3.org/2000/svg"><path fill-rule="evenodd" clip-rule="evenodd" d="M8 15A7 7 0 108 1a7 7 0 000 14zm0 1A8 8 0 108-.001 8 8 0 008 16z" fill="#D70000"/><path fill-rule="evenodd" clip-rule="evenodd" d="M10.97 4.97a.75.75 0 011.07 1.05L8.05 11.01a.749.749 0 01-1.08.02L4.324 8.384a.75.75 0 111.06-1.06l2.094 2.093 3.473-4.425a.226.226 0 01.02-.022h-.001z" fill="#D70000"/></svg><view id="loaction-map" viewBox="121 94 45 70"/><svg width="45" height="70" fill="none" viewBox="-2 -2 45 70" x="121" y="94" xmlns="http://www.w3.org/2000/svg"><path d="M20.499 64.058l-.202-.334a335.216 335.216 0 01-2.316-3.91 340.732 340.732 0 01-7.03-12.629c-2.557-4.85-5.106-10.038-7.014-14.71C2.014 27.767.793 23.699.793 21.043.793 10.168 9.614 1.35 20.499 1.35c10.888 0 19.708 8.816 19.708 19.692 0 2.656-1.221 6.724-3.144 11.432-1.908 4.672-4.458 9.86-7.015 14.71a340.99 340.99 0 01-7.03 12.63 336.148 336.148 0 01-2.519 4.243z" fill="red" stroke="#fff" stroke-width="1.585"/><path d="M20.5 4.56C11.385 4.56 4 12.038 4 21.263 4 30.486 20.5 57.58 20.5 57.58S37 30.487 37 21.263C37 12.037 29.615 4.56 20.5 4.56z" fill="#fff"/><path d="M26.263 29.627h-4.606l2.585-10.395H17.11l1.842.893-2.377 9.502H12l2.466-9.949-.713-.446.921-3.667H29.8l-3.536 14.062z" fill="#D70000"/></svg><view id="location" viewBox="200 74 20 24"/><svg width="20" height="24" fill="none" viewBox="-2 -2 20 24" x="200" y="74" xmlns="http://www.w3.org/2000/svg"><g opacity=".5" clip-path="url(#hclip0)"><path d="M7.42 19.844a1.003 1.003 0 001.16 0c.304-.217 7.45-5.377 7.42-11.82C16 3.612 12.411.021 8 .021c-4.41 0-8 3.59-8 8-.029 6.446 7.116 11.606 7.42 11.823zM8 2.022c3.31 0 6 2.692 6 6.006.021 4.44-4.388 8.426-6 9.735-1.61-1.309-6.02-5.295-6-9.739a6.007 6.007 0 016-6.002z" fill="#fff"/><path d="M10.879 8.023a2.88 2.88 0 11-5.76.002 2.88 2.88 0 015.76-.002z" stroke="#fff" stroke-width="1.5"/></g><defs><clipPath id="hclip0"><path fill="#fff" d="M0 0h16v20H0z"/></clipPath></defs></svg><view id="logo-red" viewBox="0 47 200 47"/><svg width="200" height="47" fill="none" viewBox="-2 -2 200 47" y="47" xmlns="http://www.w3.org/2000/svg"><path d="M62.356 31.819h.735v1.848h.554l1.65-1.848h.821l-1.86 2.108 1.966 2.252h-.85l-1.718-1.956h-.563v1.956h-.735v-4.36zM69.194 31.71c1.374 0 2.357.943 2.357 2.289s-.983 2.288-2.357 2.288c-1.384 0-2.367-.942-2.367-2.288 0-1.346.983-2.288 2.367-2.288zm0 4.002c.926 0 1.584-.7 1.584-1.714 0-1.005-.658-1.713-1.584-1.713-.935 0-1.584.709-1.584 1.714 0 1.014.649 1.713 1.584 1.713zM72.948 31.82h.726l1.593 2.045 1.623-2.046h.735v4.36h-.707v-3.391l-1.45 1.812h-.4l-1.413-1.812v3.392h-.707v-4.36zM79.31 31.82h.707v3.39l2.624-3.39h.735v4.36h-.706v-3.392l-2.634 3.392h-.725v-4.36zM87.106 31.71a3.04 3.04 0 011.642.494l-.315.494c-.401-.26-.802-.395-1.232-.395-.973 0-1.65.69-1.65 1.696 0 1.005.677 1.705 1.65 1.705.43 0 .83-.144 1.232-.404l.315.494a3.037 3.037 0 01-1.642.493c-1.365 0-2.337-.942-2.337-2.288 0-1.337.972-2.288 2.337-2.288zM91.837 31.71a3.04 3.04 0 011.641.494l-.315.494c-.4-.26-.802-.395-1.231-.395-.973 0-1.651.69-1.651 1.696 0 1.005.678 1.705 1.65 1.705.43 0 .83-.144 1.232-.404l.315.494a3.037 3.037 0 01-1.641.493c-1.365 0-2.338-.942-2.338-2.288 0-1.337.973-2.288 2.338-2.288zM94.683 31.82h.706v3.39l2.624-3.39h.735v4.36h-.706v-3.392l-2.635 3.392h-.724v-4.36zM102.507 31.71c1.375 0 2.358.943 2.358 2.289s-.983 2.288-2.358 2.288c-1.383 0-2.366-.942-2.366-2.288 0-1.346.983-2.288 2.366-2.288zm0 4.002c.926 0 1.585-.7 1.585-1.714 0-1.005-.659-1.713-1.585-1.713-.935 0-1.583.709-1.583 1.714 0 1.014.649 1.713 1.583 1.713zM106.263 31.82h.754v1.856h2.548V31.82h.763v4.36h-.763v-1.938h-2.548v1.939h-.754v-4.36zM112.01 31.82h.754v1.856h2.548V31.82h.763v4.36h-.763v-1.938h-2.548v1.939h-.754v-4.36zM117.756 31.82h.706v1.686h1.413c.887 0 1.527.538 1.527 1.337 0 .79-.63 1.337-1.518 1.337h-2.128v-4.36zm.706 3.822h1.308c.544 0 .916-.323.916-.799 0-.475-.382-.798-.916-.798h-1.308v1.597zm4.037-3.823h.735v4.36h-.735v-4.36zM124.925 31.819h.706v3.392l2.624-3.392h.736v4.36h-.707v-3.391l-2.633 3.391h-.726v-4.36zm1.087-1.866c.038.466.402.78.907.78.506 0 .869-.314.907-.78h.506c-.029.78-.621 1.283-1.413 1.283s-1.384-.503-1.412-1.283h.505zM133.253 31.82h.725l1.594 2.045 1.622-2.046h.735v4.36h-.706v-3.391l-1.45 1.812h-.401l-1.413-1.812v3.392h-.706v-4.36zM141.395 33.532c.324 0 .677.036 1.041.126v-.448c0-.557-.459-.952-1.136-.952-.496 0-1.002.108-1.536.323l-.21-.52c.649-.234 1.241-.35 1.832-.35 1.05 0 1.775.61 1.775 1.517v2.108c0 .242.153.395.42.395.077 0 .191-.018.248-.027l.057.538a2.854 2.854 0 01-.496.045c-.506 0-.83-.278-.888-.727-.372.458-.973.727-1.613.727-.915 0-1.613-.566-1.613-1.31 0-.915.802-1.445 2.119-1.445zm-.324 2.235c.802 0 1.365-.539 1.365-1.31v-.368a4.378 4.378 0 00-.955-.108c-.916 0-1.46.359-1.46.951 0 .475.449.835 1.05.835zM145.029 31.82h3.053v.564h-2.299v3.796h-.755v-4.36h.001zM151.112 33.532c.324 0 .677.036 1.04.126v-.448c0-.557-.458-.952-1.136-.952-.496 0-1.001.108-1.536.323l-.21-.52c.649-.234 1.241-.35 1.833-.35 1.049 0 1.774.61 1.774 1.517v2.108c0 .242.153.395.421.395.076 0 .19-.018.247-.027l.058.538a2.873 2.873 0 01-.496.045c-.506 0-.83-.278-.888-.727-.372.458-.973.727-1.613.727-.916 0-1.613-.566-1.613-1.31 0-.915.802-1.445 2.119-1.445zm-.325 2.235c.802 0 1.365-.539 1.365-1.31v-.368a4.378 4.378 0 00-.955-.108c-.915 0-1.46.359-1.46.951 0 .475.449.835 1.05.835zM155.597 33.72h.439c.649 0 1.069-.304 1.069-.734 0-.423-.363-.71-.945-.71-.41 0-.878.108-1.346.305l-.229-.52c.601-.234 1.135-.35 1.66-.35.964 0 1.594.485 1.594 1.193 0 .476-.324.898-.858 1.032.601.144.982.6.982 1.112 0 .727-.706 1.239-1.718 1.239-.562 0-1.164-.135-1.774-.386l.229-.512a3.53 3.53 0 001.45.342c.63 0 1.069-.305 1.069-.754 0-.458-.468-.799-1.183-.799h-.439v-.457zM159.387 31.82h.706v3.39l2.624-3.39h.736v4.36h-.707v-3.392l-2.633 3.392h-.726v-4.36zM165.133 31.82h.754v1.856h2.548V31.82h.763v4.36h-.763v-1.938h-2.548v1.939h-.754v-4.36zM136.606 10.893l2.135 1.162-.331 1.162h11.103l-1.159 4.058h-11.095l-.827 2.895h12.307l-1.161 4.056-18.472.005.003-.005h-.003l3.637-12.747-1.068-.585 1.153-4.056h18.501l-1.153 4.056h-13.57zM65.322 6.837l-1.158 4.056 1.069.6-3.635 12.738h6.168l3.469-12.176-2.133-1.162h9.879l-3.804 13.338h6.166L86.3 6.837H65.322zm63.104 11.895c-.87 3.034-5.431 5.499-10.183 5.499h-.009v-.006l-9.857.006 3.801-13.338-1.072-.58.995-3.476h17.269l-1.157 4.056h-12.336l2.128 1.192-.323 1.132h3.716l.004.007c4.753 0 7.895 2.467 7.024 5.508zm-7.915-1.457h-3.987l-.824 2.895h4.125c1.103-.126 2.081-.72 2.288-1.438.218-.755-.487-1.369-1.602-1.457zm70.554 6.956l-7.946-4.43-3.149 4.43h-6.168l4.898-6.888-2.197-1.23h3.073l6.574-9.233h6.171l3.68 17.351h-4.936zm-1.231-5.835l-1.308-6.194-2.788 3.911 4.096 2.284zm-17.899 1.774h1.164l-1.155 4.056h-22.125l1.156-4.056h1.181c2.43-2.61 4.205-5.777 5.072-9.277l-1.085-.56.995-3.496h18.589l-3.792 13.333zm-6.172 0l2.646-9.277h-7.466l2.285 1.162c-.043.197-.092.39-.148.58a25.18 25.18 0 01-3.489 7.535h6.172zm-57.197-4.62c-1.467 5.143-7.693 9.312-13.898 9.312-6.212 0-10.05-4.169-8.586-9.313 1.47-5.138 7.695-9.304 13.905-9.304 6.205 0 10.05 4.166 8.579 9.304zm-9.93-4.586c-3.06 0-6.127 2.056-6.852 4.585-.724 2.534 1.171 4.594 4.228 4.594 3.065 0 6.132-2.06 6.858-4.594.72-2.528-1.172-4.585-4.233-4.585zM42.996 0H1.756C.791 0 .007.736.001 1.643L0 1.652l.001.005v38.778c.006.908.79 1.644 1.755 1.644h41.24c.968 0 1.755-.739 1.755-1.65V1.653c0-.91-.787-1.652-1.755-1.652zM31.919 31.618h-8.181l4.623-16.224H15.66l3.28 1.412-4.224 14.812h-8.18l4.414-15.499-1.29-.725 1.63-5.738h26.882L31.92 31.618z" fill="#D70000"/></svg><view id="logo-square-gray" viewBox="0 94 121 114"/><svg width="121" height="114" fill="none" viewBox="-2 -2 121 114" y="94" xmlns="http://www.w3.org/2000/svg"><path d="M112.41 0H4.592C2.069 0 .019 1.923.002 4.295L0 4.318c0 .01.003.014.003.014v101.369C.019 108.077 2.07 110 4.592 110H112.41c2.532 0 4.59-1.931 4.59-4.312V4.318C116.999 1.938 114.942 0 112.41 0zM83.45 82.653H62.063l12.087-42.41H40.942l8.577 3.689-11.044 38.721H17.088l11.54-40.516-3.373-1.895 4.26-15h70.284L83.451 82.653z" fill="#DFDFDF"/></svg><view id="logo-white" viewBox="0 0 200 47"/><svg width="200" height="47" fill="none" viewBox="-2 -2 200 47" xmlns="http://www.w3.org/2000/svg"><path d="M62.356 31.819h.735v1.848h.554l1.65-1.848h.821l-1.86 2.108 1.966 2.252h-.85l-1.718-1.956h-.563v1.956h-.735v-4.36zM69.194 31.71c1.374 0 2.357.943 2.357 2.289s-.983 2.288-2.357 2.288c-1.384 0-2.367-.942-2.367-2.288 0-1.346.983-2.288 2.367-2.288zm0 4.002c.926 0 1.584-.7 1.584-1.714 0-1.005-.658-1.713-1.584-1.713-.935 0-1.584.709-1.584 1.714 0 1.014.649 1.713 1.584 1.713zM72.948 31.82h.726l1.593 2.045 1.623-2.046h.735v4.36h-.707v-3.391l-1.45 1.812h-.4l-1.413-1.812v3.392h-.707v-4.36zM79.31 31.82h.707v3.39l2.624-3.39h.735v4.36h-.706v-3.392l-2.634 3.392h-.725v-4.36zM87.106 31.71a3.04 3.04 0 011.642.494l-.315.494c-.401-.26-.802-.395-1.232-.395-.973 0-1.65.69-1.65 1.696 0 1.005.677 1.705 1.65 1.705.43 0 .83-.144 1.232-.404l.315.494a3.037 3.037 0 01-1.642.493c-1.365 0-2.337-.942-2.337-2.288 0-1.337.972-2.288 2.337-2.288zM91.837 31.71a3.04 3.04 0 011.641.494l-.315.494c-.4-.26-.802-.395-1.231-.395-.973 0-1.651.69-1.651 1.696 0 1.005.678 1.705 1.65 1.705.43 0 .83-.144 1.232-.404l.315.494a3.037 3.037 0 01-1.641.493c-1.365 0-2.338-.942-2.338-2.288 0-1.337.973-2.288 2.338-2.288zM94.683 31.82h.706v3.39l2.624-3.39h.735v4.36h-.706v-3.392l-2.635 3.392h-.724v-4.36zM102.507 31.71c1.375 0 2.358.943 2.358 2.289s-.983 2.288-2.358 2.288c-1.383 0-2.366-.942-2.366-2.288 0-1.346.983-2.288 2.366-2.288zm0 4.002c.926 0 1.585-.7 1.585-1.714 0-1.005-.659-1.713-1.585-1.713-.935 0-1.583.709-1.583 1.714 0 1.014.649 1.713 1.583 1.713zM106.263 31.82h.754v1.856h2.548V31.82h.763v4.36h-.763v-1.938h-2.548v1.939h-.754v-4.36zM112.01 31.82h.754v1.856h2.548V31.82h.763v4.36h-.763v-1.938h-2.548v1.939h-.754v-4.36zM117.756 31.82h.706v1.686h1.413c.887 0 1.527.538 1.527 1.337 0 .79-.63 1.337-1.518 1.337h-2.128v-4.36zm.706 3.822h1.308c.544 0 .916-.323.916-.799 0-.475-.382-.798-.916-.798h-1.308v1.597zm4.037-3.823h.735v4.36h-.735v-4.36zM124.925 31.819h.706v3.392l2.624-3.392h.736v4.36h-.707v-3.391l-2.633 3.391h-.726v-4.36zm1.087-1.866c.038.466.402.78.907.78.506 0 .869-.314.907-.78h.506c-.029.78-.621 1.283-1.413 1.283s-1.384-.503-1.412-1.283h.505zM133.253 31.82h.725l1.594 2.045 1.622-2.046h.735v4.36h-.706v-3.391l-1.45 1.812h-.401l-1.413-1.812v3.392h-.706v-4.36zM141.395 33.532c.324 0 .677.036 1.041.126v-.448c0-.557-.459-.952-1.136-.952-.496 0-1.002.108-1.536.323l-.21-.52c.649-.234 1.241-.35 1.832-.35 1.05 0 1.775.61 1.775 1.517v2.108c0 .242.153.395.42.395.077 0 .191-.018.248-.027l.057.538a2.854 2.854 0 01-.496.045c-.506 0-.83-.278-.888-.727-.372.458-.973.727-1.613.727-.915 0-1.613-.566-1.613-1.31 0-.915.802-1.445 2.119-1.445zm-.324 2.235c.802 0 1.365-.539 1.365-1.31v-.368a4.378 4.378 0 00-.955-.108c-.916 0-1.46.359-1.46.951 0 .475.449.835 1.05.835zM145.029 31.82h3.053v.564h-2.299v3.796h-.755v-4.36h.001zM151.112 33.532c.324 0 .677.036 1.04.126v-.448c0-.557-.458-.952-1.136-.952-.496 0-1.001.108-1.536.323l-.21-.52c.649-.234 1.241-.35 1.833-.35 1.049 0 1.774.61 1.774 1.517v2.108c0 .242.153.395.421.395.076 0 .19-.018.247-.027l.058.538a2.873 2.873 0 01-.496.045c-.506 0-.83-.278-.888-.727-.372.458-.973.727-1.613.727-.916 0-1.613-.566-1.613-1.31 0-.915.802-1.445 2.119-1.445zm-.325 2.235c.802 0 1.365-.539 1.365-1.31v-.368a4.378 4.378 0 00-.955-.108c-.915 0-1.46.359-1.46.951 0 .475.449.835 1.05.835zM155.597 33.72h.439c.649 0 1.069-.304 1.069-.734 0-.423-.363-.71-.945-.71-.41 0-.878.108-1.346.305l-.229-.52c.601-.234 1.135-.35 1.66-.35.964 0 1.594.485 1.594 1.193 0 .476-.324.898-.858 1.032.601.144.982.6.982 1.112 0 .727-.706 1.239-1.718 1.239-.562 0-1.164-.135-1.774-.386l.229-.512a3.53 3.53 0 001.45.342c.63 0 1.069-.305 1.069-.754 0-.458-.468-.799-1.183-.799h-.439v-.457zM159.387 31.82h.706v3.39l2.624-3.39h.736v4.36h-.707v-3.392l-2.633 3.392h-.726v-4.36zM165.133 31.82h.754v1.856h2.548V31.82h.763v4.36h-.763v-1.938h-2.548v1.939h-.754v-4.36zM136.606 10.893l2.135 1.162-.331 1.162h11.103l-1.159 4.058h-11.095l-.827 2.895h12.307l-1.161 4.056-18.472.005.003-.005h-.003l3.637-12.747-1.068-.585 1.153-4.056h18.501l-1.153 4.056h-13.57zM65.322 6.837l-1.158 4.056 1.069.6-3.635 12.738h6.168l3.469-12.176-2.133-1.162h9.879l-3.804 13.338h6.166L86.3 6.837H65.322zm63.104 11.895c-.87 3.034-5.431 5.499-10.183 5.499h-.009v-.006l-9.857.006 3.801-13.338-1.072-.58.995-3.476h17.269l-1.157 4.056h-12.336l2.128 1.192-.323 1.132h3.716l.004.007c4.753 0 7.895 2.467 7.024 5.508zm-7.915-1.457h-3.987l-.824 2.895h4.125c1.103-.126 2.081-.72 2.288-1.438.218-.755-.487-1.369-1.602-1.457zm70.554 6.956l-7.946-4.43-3.149 4.43h-6.168l4.898-6.888-2.197-1.23h3.073l6.574-9.233h6.171l3.68 17.351h-4.936zm-1.231-5.835l-1.308-6.194-2.788 3.911 4.096 2.284zm-17.899 1.774h1.164l-1.155 4.056h-22.125l1.156-4.056h1.181c2.43-2.61 4.205-5.777 5.072-9.277l-1.085-.56.995-3.496h18.589l-3.792 13.333zm-6.172 0l2.646-9.277h-7.466l2.285 1.162c-.043.197-.092.39-.148.58a25.18 25.18 0 01-3.489 7.535h6.172zm-57.197-4.62c-1.467 5.143-7.693 9.312-13.898 9.312-6.212 0-10.05-4.169-8.586-9.313 1.47-5.138 7.695-9.304 13.905-9.304 6.205 0 10.05 4.166 8.579 9.304zm-9.93-4.586c-3.06 0-6.127 2.056-6.852 4.585-.724 2.534 1.171 4.594 4.228 4.594 3.065 0 6.132-2.06 6.858-4.594.72-2.528-1.172-4.585-4.233-4.585zM42.996 0H1.756C.791 0 .007.736.001 1.643L0 1.652l.001.005v38.778c.006.908.79 1.644 1.755 1.644h41.24c.968 0 1.755-.739 1.755-1.65V1.653c0-.91-.787-1.652-1.755-1.652zM31.919 31.618h-8.181l4.623-16.224H15.66l3.28 1.412-4.224 14.812h-8.18l4.414-15.499-1.29-.725 1.63-5.738h26.882L31.92 31.618z" fill="#fff"/></svg><view id="phone" viewBox="220 74 14 20"/><svg width="14" height="20" fill="none" viewBox="-2 -2 14 20" x="220" y="74" xmlns="http://www.w3.org/2000/svg"><g opacity=".5" clip-path="url(#lclip0)"><path fill-rule="evenodd" clip-rule="evenodd" d="M1.538 1.624h6.924v8.633H1.538V1.625zm0 9.741v3.063h6.924v-3.063H1.538zM0 1.624C0 .74.689.023 1.538.023h6.924c.85 0 1.538.717 1.538 1.6v12.805c0 .884-.689 1.6-1.538 1.6H1.538c-.85 0-1.538-.716-1.538-1.6V1.624z" fill="#fff"/></g><defs><clipPath id="lclip0"><path fill="#fff" d="M0 0h10v16H0z"/></clipPath></defs></svg><view id="search" viewBox="220 98 16 16"/><svg width="16" height="16" fill="none" viewBox="-2 -2 16 16" x="220" y="98" xmlns="http://www.w3.org/2000/svg"><path d="M8.222 7.637a4.666 4.666 0 001.075-2.973C9.297 2.092 7.212 0 4.649 0 2.085 0 0 2.092 0 4.664c0 2.571 2.085 4.664 4.649 4.664a4.63 4.63 0 003.006-1.115l3.71 3.723.066.064.569-.571-3.778-3.792zm.27-2.973A3.854 3.854 0 014.649 8.52 3.853 3.853 0 01.807 4.664 3.853 3.853 0 014.649.81a3.854 3.854 0 013.843 3.855z" fill="#141414"/></svg></svg>