<svg display="none" xmlns="http://www.w3.org/2000/svg">
    <symbol id="svg-check" viewBox="0 0 17 16">
        <circle cx="8" cy="8" r="7.5" fill="transparent" />
        <path
            d="M15.963 2.62971C16.0568 2.53594 16.1095 2.40876 16.1095 2.27615C16.1095 2.14354 16.0568 2.01637 15.963 1.9226L15.0202 0.97979C14.825 0.784528 14.5084 0.784528 14.3131 0.97979L7.43437 7.85854L5.29636 5.72053C5.20259 5.62676 5.07542 5.57408 4.94281 5.57408C4.8102 5.57408 4.68302 5.62676 4.58926 5.72053L3.64645 6.66334C3.45118 6.8586 3.45118 7.17518 3.64645 7.37045L7.08081 10.8048C7.27608 11.0001 7.59266 11.0001 7.78792 10.8048L15.963 2.62971Z"
            stroke="white" stroke-linecap="round" stroke-linejoin="round" />
    </symbol>

    <symbol id="svg-location" viewBox="0 0 18 18">
        <path
            d="M8.99975 0C5.4052 0 2.48083 2.92437 2.48083 6.51888C2.48083 10.9798 8.31463 17.5287 8.56301 17.8053C8.7963 18.0651 9.20362 18.0647 9.4365 17.8053C9.68488 17.5287 15.5187 10.9798 15.5187 6.51888C15.5186 2.92437 12.5943 0 8.99975 0ZM8.99975 16.5139C7.03638 14.1817 3.65477 9.5805 3.65477 6.51895C3.65477 3.57166 6.0525 1.17394 8.99975 1.17394C11.947 1.17394 14.3447 3.57166 14.3447 6.51892C14.3447 9.58061 10.9636 14.181 8.99975 16.5139Z" />
        <path
            d="M9 3.23926C7.1915 3.23926 5.72021 4.71058 5.72021 6.51909C5.72021 8.3276 7.19154 9.79892 9 9.79892C10.8085 9.79892 12.2798 8.3276 12.2798 6.51909C12.2798 4.71058 10.8085 3.23926 9 3.23926ZM9 8.62498C7.8388 8.62498 6.89415 7.6803 6.89415 6.51909C6.89415 5.35788 7.83883 4.4132 9 4.4132C10.1612 4.4132 11.1059 5.35788 11.1059 6.51909C11.1059 7.6803 10.1612 8.62498 9 8.62498Z" />
    </symbol>

    <symbol id="svg-arrow" viewBox="0 0 6 10">
        <path fill-rule="evenodd" clip-rule="evenodd"
            d="M5.70711 0.292893C6.09763 0.683417 6.09763 1.31658 5.70711 1.70711L2.41421 5L5.70711 8.29289C6.09763 8.68342 6.09763 9.31658 5.70711 9.70711C5.31658 10.0976 4.68342 10.0976 4.29289 9.70711L0.292893 5.70711C-0.0976311 5.31658 -0.0976311 4.68342 0.292893 4.29289L4.29289 0.292893C4.68342 -0.0976311 5.31658 -0.0976311 5.70711 0.292893Z" />
    </symbol>

    <symbol id="svg-location-map" viewBox="0 0 41 66">
        <path
            d="M20.499 64.2942C20.4358 64.1895 20.3686 64.0779 20.2974 63.9597C19.7385 63.0306 18.9396 61.69 17.9808 60.0456C16.0627 56.7563 13.5063 52.2545 10.9509 47.4014C8.39413 42.5459 5.84493 37.3512 3.93694 32.6736C2.01453 27.9606 0.792683 23.8873 0.792683 21.2273C0.792683 10.3379 9.61492 1.51143 20.4989 1.51143C31.3861 1.51143 40.2072 10.3368 40.2073 21.2273C40.2073 23.8873 38.9853 27.9606 37.0628 32.6736C35.1546 37.3512 32.6051 42.5459 30.0481 47.4014C27.4924 52.2545 24.9357 56.7563 23.0175 60.0456C22.0586 61.69 21.2596 63.0306 20.7006 63.9596C20.6295 64.0779 20.5622 64.1895 20.499 64.2942Z"
            fill="#BE2E21" stroke="white" stroke-width="1.58537" />
        <path
            d="M20.4991 4.72607C11.3862 4.72607 4 12.2126 4 21.4482C4 30.6829 20.4992 57.8076 20.4992 57.8076C20.4992 57.8076 37 30.683 37 21.4482C36.9999 12.2117 29.6146 4.72607 20.4991 4.72607Z"
            fill="white" />
        <path
            d="M26.2634 29.8223H21.6569L24.2419 19.4138H17.111L18.9531 20.3079L16.5762 29.8223H12L14.4662 19.8609L13.7528 19.4138L14.6743 15.7422H29.7993L26.2634 29.8223Z"
            fill="#BE2E21" />
    </symbol>

    <symbol id="svg-logo-square" viewBox="0 0 118 110">
        <path
            d="M112.553 0H4.7346C2.21215 0 0.162415 1.9232 0.145829 4.2947C0.145829 4.3038 0.143066 4.309 0.143066 4.3181C0.143066 4.3272 0.145829 4.33238 0.145829 4.33238V105.701C0.162415 108.077 2.21353 110 4.7346 110H112.553C115.085 110 117.143 108.069 117.143 105.688V4.3181C117.142 1.9375 115.085 0 112.553 0ZM83.5939 82.653H62.2049L74.2919 40.2428H41.0855L49.6618 43.9319L38.6183 82.653H17.2307L28.7704 42.1374L25.3979 40.2415L29.6577 25.2419H99.9421L83.5939 82.653Z" />
    </symbol>

    <symbol id="svg-logo" viewBox="0 0 196 42">
        <path
            d="M136.606 5.88223L138.741 7.04175L138.409 8.20125H149.512L148.354 12.2519H137.259L136.432 15.141H148.738L147.578 19.1896L129.105 19.1951L129.109 19.1896H129.105L132.742 6.46669L131.675 5.88271L132.828 1.8341H151.328L150.175 5.88271H136.606V5.88223ZM65.3216 1.8336L64.1638 5.88223L65.2323 6.48059L61.5972 19.1951H67.7656L71.2342 7.04175L69.1015 5.88223H78.9801L75.1769 19.1951H81.3422L86.3 1.8336H65.3216ZM128.426 13.7061C127.556 16.7346 122.995 19.1946 118.243 19.1946H118.233V19.1891L108.377 19.1946L112.177 5.88173L111.105 5.30272L112.1 1.83311H129.37L128.213 5.88173H115.877L118.005 7.07151L117.681 8.20125H121.397L121.401 8.2082C126.154 8.2082 129.297 10.6706 128.426 13.7061ZM120.511 12.2519H116.524L115.7 15.141H119.824C120.928 15.0154 121.906 14.423 122.113 13.7061C122.331 12.9524 121.626 12.3402 120.511 12.2519ZM191.065 19.1951L183.118 14.7738L179.97 19.1951H173.802L178.699 12.3193L176.502 11.0923H179.575L186.149 1.87627H192.32L196 19.1951H191.065ZM189.833 13.3712L188.526 7.1886L185.738 11.0923L189.833 13.3712ZM171.934 15.141H173.098L171.943 19.1896H149.819L150.975 15.141H152.156C154.586 12.5362 156.36 9.37516 157.228 5.88223L156.143 5.32306L157.138 1.8336H175.726L171.934 15.141ZM165.763 15.141L168.408 5.88223H160.943L163.227 7.04175C163.184 7.23773 163.135 7.43172 163.079 7.62075C162.34 10.3248 161.15 12.8522 159.591 15.141H165.763ZM108.565 10.5292C107.099 15.6634 100.872 19.8247 94.6671 19.8247C88.4553 19.8247 84.6183 15.6634 86.0816 10.5292C87.5524 5.40046 93.7768 1.24219 99.9865 1.24219C106.192 1.24219 110.036 5.40046 108.565 10.5292ZM98.6363 5.95268C95.5753 5.95268 92.5081 8.00527 91.7833 10.5292C91.0595 13.0586 92.9548 15.1147 96.012 15.1147C99.0762 15.1147 102.143 13.0586 102.869 10.5292C103.589 8.00527 101.698 5.95268 98.6363 5.95268Z" />
        <path
            d="M42.9956 0H1.75621C0.791403 0 0.00740069 0.734313 0.00105674 1.6398C0.00105674 1.64327 0 1.64526 0 1.64873C0 1.6522 0.00105674 1.65418 0.00105674 1.65418V40.3587C0.00740069 41.2657 0.791932 42 1.75621 42H42.9956C43.9641 42 44.7513 41.2627 44.7513 40.3538V1.64873C44.7507 0.739773 43.9641 0 42.9956 0ZM31.9191 31.5584H23.738L28.3611 15.3654H15.66L18.9404 16.774L14.7164 31.5584H6.53585L10.9497 16.0888L9.65971 15.3649L11.2891 9.63782H38.1721L31.9191 31.5584Z" />
        <path
            d="M69.728 38.4773H64.492L62.938 40.9227H61.426L67.838 31.1411H69.224L71.702 40.9227H70.316L69.728 38.4773ZM69.448 37.3594L68.286 32.5385L65.206 37.3594H69.448Z" />
        <path
            d="M80.9254 35.8782C81.3641 36.0272 81.7047 36.2694 81.9474 36.6048C82.1901 36.9402 82.3114 37.3594 82.3114 37.8624C82.3114 38.8499 81.9287 39.6091 81.1634 40.1401C80.4074 40.6618 79.3714 40.9227 78.0554 40.9227H73.3374L75.2974 31.1411H79.6374C80.6267 31.1411 81.3874 31.3274 81.9194 31.7C82.4607 32.0633 82.7314 32.5943 82.7314 33.293C82.7314 33.9265 82.5634 34.4668 82.2274 34.914C81.9007 35.3518 81.4667 35.6732 80.9254 35.8782ZM76.4594 32.273L75.8294 35.4031H78.6994C79.4927 35.4031 80.1181 35.2447 80.5754 34.928C81.0421 34.6019 81.2754 34.1315 81.2754 33.5166C81.2754 33.0974 81.1074 32.7853 80.7714 32.5804C80.4447 32.3754 79.9687 32.273 79.3434 32.273H76.4594ZM78.1534 39.7908C79.0401 39.7908 79.7214 39.6278 80.1974 39.3017C80.6827 38.9663 80.9254 38.4912 80.9254 37.8764C80.9254 37.392 80.7527 37.0473 80.4074 36.8423C80.0714 36.6374 79.5627 36.5349 78.8814 36.5349H75.6054L74.9614 39.7908H78.1534Z" />
        <path
            d="M92.3084 32.3568H88.9344L87.2404 40.9227H85.8544L87.5484 32.3568H84.2304L84.4684 31.1411H92.5464L92.3084 32.3568Z" />
        <path
            d="M96.9252 41.0345C95.9639 41.0345 95.1379 40.8621 94.4472 40.5174C93.7565 40.1727 93.2292 39.693 92.8652 39.0781C92.5012 38.454 92.3192 37.732 92.3192 36.9122C92.3192 35.8223 92.5665 34.8301 93.0612 33.9358C93.5559 33.0415 94.2512 32.3335 95.1472 31.8118C96.0525 31.2901 97.0932 31.0293 98.2692 31.0293C99.2305 31.0293 100.057 31.2016 100.747 31.5463C101.447 31.891 101.979 32.3754 102.343 32.9996C102.707 33.6144 102.889 34.3317 102.889 35.1515C102.889 36.2415 102.642 37.2336 102.147 38.1279C101.653 39.0222 100.953 39.7302 100.047 40.2519C99.1419 40.7736 98.1012 41.0345 96.9252 41.0345ZM97.0512 39.7908C97.9286 39.7908 98.7032 39.5858 99.3752 39.176C100.047 38.7661 100.565 38.2164 100.929 37.5271C101.293 36.8284 101.475 36.0645 101.475 35.2354C101.475 34.3317 101.186 33.6144 100.607 33.0834C100.038 32.5431 99.2212 32.273 98.1572 32.273C97.2799 32.273 96.5052 32.4779 95.8332 32.8878C95.1612 33.2977 94.6385 33.852 94.2652 34.5507C93.9012 35.2493 93.7192 36.0086 93.7192 36.8284C93.7192 37.732 94.0085 38.454 94.5872 38.9943C95.1659 39.5253 95.9872 39.7908 97.0512 39.7908Z" />
    </symbol>
</svg>