<svg width="17" height="16" viewBox="0 0 17 16" fill="none" xmlns="http://www.w3.org/2000/svg">
<circle cx="8" cy="8" r="7.5" stroke="#BE2E21"/>
<path d="M15.963 2.62971C16.0568 2.53594 16.1095 2.40876 16.1095 2.27615C16.1095 2.14354 16.0568 2.01637 15.963 1.9226L15.0202 0.97979C14.825 0.784528 14.5084 0.784528 14.3131 0.97979L7.43437 7.85854L5.29636 5.72053C5.20259 5.62676 5.07542 5.57408 4.94281 5.57408C4.8102 5.57408 4.68302 5.62676 4.58926 5.72053L3.64645 6.66334C3.45118 6.8586 3.45118 7.17518 3.64645 7.37045L7.08081 10.8048C7.27608 11.0001 7.59266 11.0001 7.78792 10.8048L15.963 2.62971Z" fill="#BE2E21" stroke="white" stroke-linecap="round" stroke-linejoin="round"/>
</svg>
