<svg width="18" height="18" viewBox="0 0 18 18" fill="none" xmlns="http://www.w3.org/2000/svg">
<path d="M8.99975 0C5.4052 0 2.48083 2.92437 2.48083 6.51888C2.48083 10.9798 8.31463 17.5287 8.56301 17.8053C8.7963 18.0651 9.20362 18.0647 9.4365 17.8053C9.68488 17.5287 15.5187 10.9798 15.5187 6.51888C15.5186 2.92437 12.5943 0 8.99975 0ZM8.99975 16.5139C7.03638 14.1817 3.65477 9.5805 3.65477 6.51895C3.65477 3.57166 6.0525 1.17394 8.99975 1.17394C11.947 1.17394 14.3447 3.57166 14.3447 6.51892C14.3447 9.58061 10.9636 14.181 8.99975 16.5139Z" fill="#BE2E21"/>
<path d="M9 3.23926C7.1915 3.23926 5.72021 4.71058 5.72021 6.51909C5.72021 8.3276 7.19154 9.79892 9 9.79892C10.8085 9.79892 12.2798 8.3276 12.2798 6.51909C12.2798 4.71058 10.8085 3.23926 9 3.23926ZM9 8.62498C7.8388 8.62498 6.89415 7.6803 6.89415 6.51909C6.89415 5.35788 7.83883 4.4132 9 4.4132C10.1612 4.4132 11.1059 5.35788 11.1059 6.51909C11.1059 7.6803 10.1612 8.62498 9 8.62498Z" fill="#BE2E21"/>
</svg>
