<svg width="41" height="66" viewBox="0 0 41 66" fill="none" xmlns="http://www.w3.org/2000/svg">
<path d="M20.499 64.2942C20.4358 64.1895 20.3686 64.0779 20.2974 63.9597C19.7385 63.0306 18.9396 61.69 17.9808 60.0456C16.0627 56.7563 13.5063 52.2545 10.9509 47.4014C8.39413 42.5459 5.84493 37.3512 3.93694 32.6736C2.01453 27.9606 0.792683 23.8873 0.792683 21.2273C0.792683 10.3379 9.61492 1.51143 20.4989 1.51143C31.3861 1.51143 40.2072 10.3368 40.2073 21.2273C40.2073 23.8873 38.9853 27.9606 37.0628 32.6736C35.1546 37.3512 32.6051 42.5459 30.0481 47.4014C27.4924 52.2545 24.9357 56.7563 23.0175 60.0456C22.0586 61.69 21.2596 63.0306 20.7006 63.9596C20.6295 64.0779 20.5622 64.1895 20.499 64.2942Z" fill="#BE2E21" stroke="white" stroke-width="1.58537"/>
<path d="M20.4991 4.72607C11.3862 4.72607 4 12.2126 4 21.4482C4 30.6829 20.4992 57.8076 20.4992 57.8076C20.4992 57.8076 37 30.683 37 21.4482C36.9999 12.2117 29.6146 4.72607 20.4991 4.72607Z" fill="white"/>
<path d="M26.2634 29.8223H21.6569L24.2419 19.4138H17.111L18.9531 20.3079L16.5762 29.8223H12L14.4662 19.8609L13.7528 19.4138L14.6743 15.7422H29.7993L26.2634 29.8223Z" fill="#BE2E21"/>
</svg>
