<svg width="118" height="110" viewBox="0 0 118 110" fill="none" xmlns="http://www.w3.org/2000/svg">
<path d="M112.553 0H4.7346C2.21215 0 0.162415 1.9232 0.145829 4.2947C0.145829 4.3038 0.143066 4.309 0.143066 4.3181C0.143066 4.3272 0.145829 4.33238 0.145829 4.33238V105.701C0.162415 108.077 2.21353 110 4.7346 110H112.553C115.085 110 117.143 108.069 117.143 105.688V4.3181C117.142 1.9375 115.085 0 112.553 0ZM83.5939 82.653H62.2049L74.2919 40.2428H41.0855L49.6618 43.9319L38.6183 82.653H17.2307L28.7704 42.1374L25.3979 40.2415L29.6577 25.2419H99.9421L83.5939 82.653Z" fill="#DFDFDF"/>
</svg>
