<svg width="117" height="110" viewBox="0 0 117 110" fill="none" xmlns="http://www.w3.org/2000/svg">
<path d="M112.41 0H4.59153C2.06908 0 0.0193488 1.9232 0.00276281 4.2947C0.00276281 4.3038 0 4.309 0 4.3181C0 4.3272 0.00276281 4.33238 0.00276281 4.33238V105.701C0.0193488 108.077 2.07047 110 4.59153 110H112.41C114.942 110 117 108.069 117 105.688V4.3181C116.999 1.9375 114.942 0 112.41 0ZM83.4508 82.653H62.0618L74.1488 40.2428H40.9424L49.5187 43.9319L38.4752 82.653H17.0877L28.6273 42.1374L25.2549 40.2415L29.5147 25.2419H99.799L83.4508 82.653Z" fill="white"/>
</svg>
