<svg width="136" height="29" viewBox="0 0 136 29" fill="none" xmlns="http://www.w3.org/2000/svg">
<path d="M94.323 4.06175L95.797 4.86237L95.5681 5.66298H103.234L102.435 8.45982H94.7738L94.2029 10.4547H102.7L101.899 13.2502L89.144 13.2539L89.1465 13.2502H89.144L91.6554 4.4653L90.918 4.06208L91.7141 1.26661H104.488L103.692 4.06208H94.323V4.06175ZM45.1029 1.26627L44.3035 4.06175L45.0412 4.4749L42.5312 13.2539H46.7904L49.1854 4.86237L47.7128 4.06175H54.5338L51.9077 13.2539H56.1647L59.5879 1.26627H45.1029ZM88.6749 9.46394C88.0741 11.5551 84.925 13.2536 81.6437 13.2536H81.6371V13.2498L74.8316 13.2536L77.4557 4.0614L76.7155 3.66161L77.4024 1.26592H89.3265L88.5278 4.0614H80.0098L81.4795 4.88292L81.2561 5.66298H83.8218L83.8244 5.66777C87.1064 5.66777 89.2761 7.36801 88.6749 9.46394ZM83.2097 8.45982H80.4566L79.8879 10.4547H82.7355C83.4977 10.368 84.173 9.95897 84.3157 9.46394C84.4665 8.94355 83.9795 8.5208 83.2097 8.45982ZM131.926 13.2539L126.439 10.2012L124.265 13.2539H120.006L123.387 8.50642L121.871 7.65921H123.992L128.532 1.29573H132.792L135.333 13.2539H131.926ZM131.075 9.2327L130.172 4.96377L128.247 7.65921L131.075 9.2327ZM118.716 10.4547H119.52L118.723 13.2502H103.446L104.244 10.4547H105.06C106.738 8.65612 107.963 6.47353 108.562 4.06175L107.813 3.67565L108.5 1.26627H121.335L118.716 10.4547ZM114.455 10.4547L116.282 4.06175H111.127L112.704 4.86237C112.675 4.99769 112.641 5.13164 112.602 5.26216C112.092 7.12924 111.27 8.87435 110.193 10.4547H114.455ZM74.9615 7.27038C73.9489 10.8154 69.6496 13.6887 65.3653 13.6887C61.0762 13.6887 58.4268 10.8154 59.4372 7.27038C60.4527 3.7291 64.7505 0.85791 69.0382 0.85791C73.3229 0.85791 75.9774 3.7291 74.9615 7.27038ZM68.1059 4.1104C65.9924 4.1104 63.8745 5.52766 63.374 7.27038C62.8743 9.01687 64.1829 10.4365 66.2939 10.4365C68.4096 10.4365 70.5275 9.01687 71.0287 7.27038C71.5259 5.52766 70.2198 4.1104 68.1059 4.1104Z" fill="#BE2E21"/>
<path d="M29.6874 0H1.21262C0.546445 0 0.00511 0.507026 0.000729657 1.13224C0.000729657 1.13464 0 1.13601 0 1.13841C0 1.14081 0.000729657 1.14217 0.000729657 1.14217V27.8667C0.00511 28.493 0.54681 29 1.21262 29H29.6874C30.3562 29 30.8997 28.4909 30.8997 27.8633V1.13841C30.8993 0.510796 30.3562 0 29.6874 0ZM22.0393 21.7903H16.3905L19.5827 10.6095H10.8129L13.0779 11.5821L10.1613 21.7903H4.51285L7.56047 11.1089L6.6698 10.6091L7.79482 6.65468H26.3569L22.0393 21.7903Z" fill="#BE2E21"/>
<path d="M48.1454 26.5675H44.5301L43.4571 28.2559H42.4131L46.8404 21.502H47.7974L49.5084 28.2559H48.5514L48.1454 26.5675ZM47.9521 25.7956L47.1498 22.4668L45.0231 25.7956H47.9521Z" fill="#BE2E21"/>
<path d="M55.8769 24.7728C56.1798 24.8758 56.4151 25.043 56.5826 25.2746C56.7502 25.5061 56.8339 25.7956 56.8339 26.1429C56.8339 26.8247 56.5697 27.349 56.0413 27.7156C55.5193 28.0758 54.8039 28.2559 53.8953 28.2559H50.6376L51.9909 21.502H54.9876C55.6707 21.502 56.1959 21.6306 56.5633 21.8879C56.9371 22.1388 57.1239 22.5054 57.1239 22.9879C57.1239 23.4253 57.0079 23.7983 56.7759 24.1071C56.5504 24.4094 56.2507 24.6313 55.8769 24.7728ZM52.7933 22.2835L52.3583 24.4448H54.3399C54.8877 24.4448 55.3195 24.3354 55.6353 24.1167C55.9575 23.8916 56.1186 23.5668 56.1186 23.1422C56.1186 22.8528 56.0026 22.6373 55.7706 22.4958C55.5451 22.3543 55.2164 22.2835 54.7846 22.2835H52.7933ZM53.9629 27.4744C54.5752 27.4744 55.0456 27.3618 55.3743 27.1367C55.7094 26.9052 55.8769 26.5771 55.8769 26.1526C55.8769 25.8181 55.7577 25.5801 55.5193 25.4386C55.2873 25.2971 54.9361 25.2263 54.4656 25.2263H52.2036L51.7589 27.4744H53.9629Z" fill="#BE2E21"/>
<path d="M63.7366 22.3414H61.407L60.2373 28.2559H59.2803L60.45 22.3414H58.159L58.3233 21.502H63.901L63.7366 22.3414Z" fill="#BE2E21"/>
<path d="M66.9244 28.3331C66.2607 28.3331 65.6903 28.2141 65.2134 27.9761C64.7365 27.7381 64.3724 27.4069 64.1211 26.9823C63.8698 26.5514 63.7441 26.0529 63.7441 25.4868C63.7441 24.7342 63.9149 24.0492 64.2564 23.4317C64.598 22.8142 65.0781 22.3253 65.6968 21.9651C66.3219 21.6049 67.0404 21.4248 67.8524 21.4248C68.5162 21.4248 69.0865 21.5438 69.5634 21.7818C70.0468 22.0198 70.4141 22.3543 70.6654 22.7852C70.9168 23.2098 71.0424 23.7051 71.0424 24.2711C71.0424 25.0237 70.8717 25.7087 70.5301 26.3262C70.1885 26.9437 69.7052 27.4326 69.0801 27.7928C68.455 28.153 67.7364 28.3331 66.9244 28.3331ZM67.0114 27.4744C67.6172 27.4744 68.1521 27.3329 68.6161 27.0499C69.0801 26.7669 69.4378 26.3873 69.6891 25.9114C69.9404 25.4289 70.0661 24.9015 70.0661 24.329C70.0661 23.7051 69.8663 23.2098 69.4668 22.8431C69.0737 22.4701 68.5098 22.2835 67.7751 22.2835C67.1693 22.2835 66.6344 22.425 66.1704 22.7081C65.7064 22.9911 65.3455 23.3738 65.0878 23.8562C64.8364 24.3387 64.7108 24.8629 64.7108 25.4289C64.7108 26.0529 64.9105 26.5514 65.3101 26.9244C65.7097 27.2911 66.2768 27.4744 67.0114 27.4744Z" fill="#BE2E21"/>
</svg>
