<?xml version="1.0" encoding="utf-8"?>
<!-- Generator: Adobe Illustrator 21.1.0, SVG Export Plug-In . SVG Version: 6.00 Build 0)  -->
<svg version="1.1" id="Слой_1" xmlns="http://www.w3.org/2000/svg" xmlns:xlink="http://www.w3.org/1999/xlink" x="0px" y="0px"
	 viewBox="0 0 54 50" style="enable-background:new 0 0 54 50;" xml:space="preserve">
<style type="text/css">
	.st0{fill:none;}
	.st1{fill:#DB393B;}
</style>
<g>
	<path class="st0" d="M15,24.69c1.465,0.273,2.84,0.905,4,1.84c1.161-0.931,2.536-1.56,4-1.83h0.31
		c1.172-0.193,1.965-1.3,1.771-2.471c0-0.003-0.001-0.006-0.001-0.009V10.6H12.87v11.58c-0.199,1.171,0.589,2.281,1.76,2.48
		C14.752,24.68,14.876,24.691,15,24.69z"/>
	<path class="st0" d="M32.87,2.17H2.17V45h30.7c1.624,0,2.94-1.316,2.94-2.94v-37C35.783,3.456,34.474,2.17,32.87,2.17z M11,9
		c0-0.171,0.139-0.31,0.31-0.31h0h15.4C26.873,8.701,27,8.836,27,9v13.2l0,0c0.201,2.2-1.419,4.147-3.619,4.348
		c-0.007,0.001-0.014,0.001-0.021,0.002c-1.754,0.312-3.318,1.294-4.36,2.74c-1.051-1.448-2.626-2.428-4.39-2.73
		c-2.193-0.206-3.807-2.146-3.61-4.34V9z M27.11,37.47c0,0.12-0.13,0.22-0.29,0.22H11.15c-0.17,0-0.29-0.1-0.29-0.22v-1.38
		c0-0.12,0.13-0.22,0.29-0.22h15.66c0.17,0,0.29,0.1,0.29,0.22L27.11,37.47z"/>
	<path class="st1" d="M32.87,0H0.31C0.139,0,0,0.139,0,0.31v46.6c0,0.171,0.139,0.31,0.31,0.31c0,0,0,0,0,0h32.56
		c2.829,0,5.124-2.291,5.13-5.12v-37C37.983,2.279,35.692,0,32.87,0z M35.81,42.1c-0.022,1.608-1.332,2.9-2.94,2.9H2.17V2.17h30.7
		c1.624,0,2.94,1.316,2.94,2.94V42.1z"/>
	<path class="st1" d="M14.61,26.56c1.764,0.302,3.339,1.282,4.39,2.73c1.051-1.448,2.626-2.428,4.39-2.73
		c2.2-0.206,3.816-2.155,3.61-4.355c0-0.002,0-0.003,0-0.005l0,0V9c0-0.171-0.139-0.31-0.31-0.31H11.28
		C11.121,8.705,10.999,8.84,11,9v13.22C10.803,24.414,12.417,26.354,14.61,26.56z M12.87,22.18V10.6h12.26v11.62
		c0.198,1.171-0.59,2.28-1.761,2.479c-0.003,0-0.006,0.001-0.009,0.001H23c-1.464,0.27-2.839,0.899-4,1.83
		c-1.16-0.935-2.535-1.567-4-1.84c-1.187-0.016-2.137-0.992-2.12-2.179c0.002-0.111,0.012-0.221,0.03-0.331L12.87,22.18z"/>
	<path class="st1" d="M26.81,35.88H11.15c-0.17,0-0.29,0.1-0.29,0.22v1.38c0,0.12,0.13,0.22,0.29,0.22h15.66
		c0.17,0,0.29-0.1,0.29-0.22v-1.39C27.11,36,27,35.88,26.81,35.88z"/>
</g>
</svg>
