<?xml version="1.0" encoding="utf-8"?>
<!-- Generator: Adobe Illustrator 21.1.0, SVG Export Plug-In . SVG Version: 6.00 Build 0)  -->
<svg version="1.1" id="Слой_1" xmlns="http://www.w3.org/2000/svg" xmlns:xlink="http://www.w3.org/1999/xlink" x="0px" y="0px"
	 viewBox="0 0 54 50" style="enable-background:new 0 0 54 50;" xml:space="preserve">
<style type="text/css">
	.st0{fill:none;stroke:#DB393B;stroke-width:2.25;stroke-miterlimit:10;}
	.st1{fill:#DB393B;}
	.st2{fill:none;stroke:#DB393B;stroke-width:1.71;stroke-miterlimit:10;}
</style>
<g>
	<g>
		<path class="st0" d="M4.137,36.598v3.079c0,3.217,5.629,3.177,5.629,0v-3.06"/>
		<path class="st0" d="M18.131,10.963h-6.325c-1.875-0.1-3.59,1.051-4.207,2.824L4.509,21.75c-2.012,0.448-3.428,2.255-3.383,4.315
			v7.845c0,1.284,1.04,2.324,2.324,2.324h14.827L18.131,10.963z M7.432,30.459L7.432,30.459c-1.479-0.001-2.676-1.2-2.675-2.679
			c0.001-1.478,1.198-2.675,2.675-2.675l0,0c1.479,0.001,2.676,1.2,2.675,2.679C10.107,29.26,8.909,30.458,7.432,30.459z
			 M18.219,21.633H4.539"/>
	</g>
	<path class="st1" d="M43.52,2.265l8.218,12.219v28.812c0.089,1.886-1.361,3.489-3.246,3.589H22.995
		c-1.885-0.1-3.335-1.703-3.246-3.589V5.854c-0.089-1.886,1.361-3.489,3.246-3.589L43.52,2.265 M44.569,0.058H22.995
		c-3.103,0.101-5.541,2.692-5.452,5.796v37.441c-0.087,3.113,2.364,5.707,5.478,5.796c0.005,0,0.009,0,0.014,0h25.497
		c3.099-0.107,5.531-2.696,5.443-5.796v-29.42c0.015-0.051,0.015-0.106,0-0.157L44.775,0.176C44.73,0.106,44.652,0.061,44.569,0.058
		z"/>
	<path class="st2" d="M52.669,14.827H44.53c-0.843,0-1.53-0.981-1.53-2.265V1.569"/>
	<g id="Page_1_2x.png">
		<path class="st1" d="M25.319,21.456h19.897c0.609,0.058,1.15-0.389,1.207-0.999c0.057-0.61-0.389-1.15-0.999-1.207
			c-0.07-0.007-0.139-0.007-0.208,0H25.319c-0.609,0.058-1.056,0.598-0.999,1.207C24.369,20.987,24.789,21.406,25.319,21.456z
			 M25.319,12.63h5.531c0.609,0.058,1.15-0.389,1.207-0.999c0.058-0.609-0.389-1.15-0.999-1.207c-0.07-0.007-0.139-0.007-0.208,0
			h-5.531c-0.609,0.058-1.056,0.598-0.999,1.207C24.369,12.161,24.789,12.58,25.319,12.63z M45.216,28.095H25.319
			c-0.609,0.058-1.056,0.598-0.999,1.207c0.05,0.53,0.47,0.949,0.999,0.999h19.897c0.609,0.058,1.15-0.389,1.207-0.999
			c0.057-0.61-0.389-1.15-0.999-1.207C45.355,28.088,45.286,28.088,45.216,28.095z M38.587,36.921H25.319
			c-0.609,0.058-1.056,0.598-0.999,1.207c0.05,0.53,0.47,0.949,0.999,0.999h13.268c0.609,0.058,1.15-0.389,1.207-0.999
			c0.058-0.609-0.389-1.15-0.999-1.207C38.726,36.914,38.657,36.914,38.587,36.921z"/>
	</g>
</g>
</svg>
