<?xml version="1.0" encoding="utf-8"?>
<!-- Generator: Adobe Illustrator 21.1.0, SVG Export Plug-In . SVG Version: 6.00 Build 0)  -->
<svg version="1.1" id="Слой_1" xmlns="http://www.w3.org/2000/svg" xmlns:xlink="http://www.w3.org/1999/xlink" x="0px" y="0px"
	 viewBox="0 0 54 50" style="enable-background:new 0 0 54 50;" xml:space="preserve">
<style type="text/css">
	.st0{fill:none;stroke:#DB393B;stroke-width:1.19;stroke-miterlimit:10;}
	.st1{fill:#DB393B;}
	.st2{fill:none;stroke:#DB393B;stroke-width:1.1902;stroke-miterlimit:10;}
</style>
<g>
	<g>
		<path class="st0" d="M22.91,16.81v0.87c0,0.613,0.496,1.11,1.109,1.111c0.613,0,1.11-0.496,1.111-1.109c0-0.001,0-0.001,0-0.002
			v-0.87"/>
		<path class="st0" d="M12.74,16.81v0.87c-0.058,0.61,0.389,1.152,1,1.21c0.61,0.058,1.152-0.389,1.21-1
			c0.007-0.07,0.007-0.14,0-0.21v-0.87"/>
		<path class="st0" d="M26.31,16v-3.06c0.018-0.804-0.528-1.512-1.31-1.7l-1.24-3.12C23.523,7.419,22.849,6.961,22.11,7h-6.36
			c-0.738-0.035-1.411,0.421-1.65,1.12l-1.21,3.12c-0.792,0.176-1.349,0.888-1.33,1.7V16c0,0.503,0.407,0.91,0.91,0.91H25.4
			C25.903,16.91,26.31,16.503,26.31,16z M14,14.67L14,14.67c-0.58,0-1.05-0.47-1.05-1.05s0.47-1.05,1.05-1.05l0,0
			c0.58,0,1.05,0.47,1.05,1.05S14.58,14.67,14,14.67z M18.91,11.22L18.91,11.22z M23.73,14.75L23.73,14.75
			c-0.58,0-1.05-0.47-1.05-1.05s0.47-1.05,1.05-1.05l0,0c0.58,0,1.05,0.47,1.05,1.05S24.31,14.75,23.73,14.75z"/>
	</g>
	<path class="st1" d="M32.87,2.16C34.435,2.166,35.7,3.435,35.7,5v38c0,1.568-1.272,2.84-2.84,2.84l0,0H5
		c-1.568,0-2.84-1.272-2.84-2.84l0,0V5c0-1.568,1.272-2.84,2.84-2.84l0,0H32.87 M32.87,0H5C2.239,0,0,2.239,0,5v38
		c0,2.761,2.239,5,5,5h27.87c2.761,0,5-2.239,5-5V5C37.87,2.239,35.631,0,32.87,0z"/>
	<g>
		<g id="Clipboard_2x.png">
			<path class="st1" d="M28.29,31.92H9.58c-0.511,0.053-0.882,0.51-0.829,1.021c0.046,0.437,0.391,0.783,0.829,0.829h18.7
				c0.511-0.053,0.882-0.51,0.829-1.021c-0.046-0.437-0.391-0.783-0.829-0.829H28.29z"/>
		</g>
		<g id="Clipboard_2x.png-2">
			<path class="st1" d="M26.59,37.49H11.28c-0.511,0.053-0.882,0.51-0.829,1.021c0.046,0.437,0.391,0.783,0.829,0.829h15.3
				c0.511-0.053,0.882-0.51,0.829-1.021c-0.046-0.437-0.391-0.783-0.829-0.829H26.59z"/>
		</g>
		<g id="Clipboard_2x.png-3">
			<path class="st1" d="M24,26.36H13.83c-0.511,0.053-0.882,0.51-0.829,1.021c0.046,0.437,0.391,0.783,0.829,0.829H24
				c0.511-0.053,0.882-0.51,0.829-1.021C24.783,26.751,24.437,26.406,24,26.36z"/>
		</g>
	</g>
</g>
<path class="st2" d="M19.104,11.169h-0.018H13.05c0,0,9.929,0,12.069,0C25.429,11.169,19.104,11.169,19.104,11.169L19.104,11.169z"
	/>
</svg>
