<svg width="44" height="43" viewBox="0 0 44 43" fill="none" xmlns="http://www.w3.org/2000/svg">
<path d="M22.3984 34.0304L22.4995 34.1505L22.6006 34.0304C24.6218 31.6293 27.3732 28.0605 29.6201 24.3022C31.8635 20.55 33.6185 16.5855 33.6185 13.4C33.6185 7.26877 28.6307 2.28095 22.4995 2.28095C16.3683 2.28095 11.3804 7.26877 11.3804 13.4001C11.3804 16.5855 13.1357 20.5503 15.3792 24.3027C17.6263 28.0612 20.3777 31.6301 22.3984 34.0304ZM23.2989 36.5114L23.3972 36.5997L23.2989 36.5114C22.8727 36.9862 22.127 36.987 21.7001 36.5114C21.4466 36.2292 18.3258 32.727 15.269 28.1518C13.7407 25.8642 12.2301 23.311 11.102 20.7599C9.97322 18.2072 9.23163 15.666 9.23163 13.3999C9.23163 6.08418 15.1837 0.132143 22.4995 0.132143C29.8152 0.132143 35.7672 6.08418 35.7673 13.3999C35.7673 15.666 35.0258 18.2072 33.8969 20.7599C32.7689 23.311 31.2583 25.8642 29.7299 28.1518C26.6732 32.727 23.5523 36.2292 23.2989 36.5114Z" fill="#BE2E21" stroke="white" stroke-width="0.264286"/>
<path d="M18.1934 10.6533H18.1592L15.582 12.4854V10.9814L18.1797 9.13574H19.6904V19H18.1934V10.6533ZM25.6924 19.1846C24.5166 19.1846 23.5938 18.722 22.9238 17.7969C22.2585 16.8854 21.9258 15.639 21.9258 14.0576C21.9258 12.4899 22.2607 11.248 22.9307 10.332C23.6006 9.41146 24.5212 8.95117 25.6924 8.95117C26.8636 8.95117 27.7842 9.41146 28.4541 10.332C29.1149 11.2389 29.4453 12.4785 29.4453 14.0508C29.4453 15.6322 29.1149 16.8809 28.4541 17.7969C27.7887 18.722 26.8682 19.1846 25.6924 19.1846ZM25.6924 17.8994C26.3942 17.8994 26.9388 17.5576 27.3262 16.874C27.709 16.195 27.9004 15.2562 27.9004 14.0576C27.9004 12.8727 27.7067 11.9408 27.3193 11.2617C26.9274 10.5781 26.3851 10.2363 25.6924 10.2363C24.9997 10.2363 24.4574 10.5804 24.0654 11.2686C23.6735 11.9476 23.4775 12.8773 23.4775 14.0576C23.4775 15.2562 23.6712 16.1927 24.0586 16.8672C24.446 17.5553 24.9906 17.8994 25.6924 17.8994Z" fill="#BE2E21"/>
<path d="M1 42L43 42" stroke="#BE2E21" stroke-width="1.8" stroke-linecap="round" stroke-linejoin="round"/>
</svg>
