<svg width="42" height="30" viewBox="0 0 42 30" fill="none" xmlns="http://www.w3.org/2000/svg">
<path d="M41.9916 16.6025C41.9414 15.4393 40.8033 14.5105 38.6025 13.841C36.8954 13.3306 34.728 13.0209 32.3849 12.9707V4.04185C32.3766 3.89122 32.3347 3.74896 32.2594 3.62344C32.0251 2.61089 30.8954 1.7908 28.8954 1.18829C27.0126 0.619255 24.5523 0.309631 21.9665 0.309631C19.3891 0.309631 16.954 0.619255 15.1046 1.18829C13.59 1.65691 11.7741 2.5272 11.7741 4.02511C11.7741 4.11716 11.7824 4.20921 11.7992 4.30126L11.8912 8.11716C6.45188 7.07951 1.20502 10.6527 0.175732 16.0837C0.0585774 16.7029 0 17.3222 0 17.9498C0 23.4728 4.49372 27.9665 10.0167 27.9665C12.318 27.9665 14.5439 27.1799 16.3264 25.7239C17.8912 26.0921 19.7322 26.2929 21.682 26.3096C22.1088 28.6276 27.1297 29.6904 31.8075 29.6904C34.3849 29.6904 36.8201 29.3724 38.6695 28.795C40.1841 28.3264 42 27.4477 42 25.9498V16.7615C42 16.7113 42 16.6527 41.9916 16.6025ZM30.636 8.66946C30.636 8.77825 30.2343 9.35566 28.4184 9.90796C26.7197 10.4184 24.3682 10.7197 21.9749 10.7197C19.9079 10.7197 17.8828 10.5021 16.2761 10.0921C16.251 10.0837 16.2343 10.0837 16.2092 10.0753C15.4142 9.44771 14.5356 8.94561 13.59 8.59415L13.5314 6.23432C14.1088 6.5272 14.7113 6.76151 15.3389 6.92888C17.1548 7.45607 19.5063 7.74059 21.9749 7.74059C24.5523 7.74059 27.0209 7.43097 28.9038 6.86193C29.5314 6.67783 30.1423 6.43515 30.7197 6.1339V8.32637C30.6276 8.44352 30.636 8.55231 30.636 8.66946ZM15.6067 2.80335C17.2971 2.28453 19.5565 1.99164 21.9665 1.99164C24.3598 1.99164 26.7113 2.28453 28.41 2.80335C30.2259 3.35566 30.6276 3.92469 30.6276 4.03348C30.6276 4.15064 30.2176 4.72804 28.4017 5.27197C26.7029 5.78243 24.3598 6.07532 21.9665 6.07532C19.6569 6.07532 17.4644 5.80754 15.7992 5.32218C14 4.80336 13.4979 4.23432 13.4561 4.05022C13.4561 4.03348 13.4477 4.03348 13.4477 4.03348C13.4561 3.87448 13.841 3.33892 15.6067 2.80335ZM15.6318 24.1255C12.2259 27.2218 6.94561 26.9791 3.84937 23.5732C0.753138 20.1674 0.995816 14.887 4.40167 11.7908C5.93305 10.3933 7.94142 9.62344 10.0167 9.62344C10.8536 9.62344 11.682 9.74896 12.4854 9.99164C15.3891 10.8954 17.5732 13.3054 18.1925 16.2762C18.3013 16.8285 18.3598 17.3975 18.3598 17.9582C18.3682 20.3096 17.3724 22.5439 15.6318 24.1255ZM17.7573 24.3096C18.4351 23.4812 18.9791 22.5523 19.364 21.5565C20.0753 21.6151 20.8117 21.6569 21.5816 21.6653V21.8159L21.6318 24.6527C20.3347 24.636 19.0377 24.5188 17.7573 24.3096ZM19.9916 16.9624C20.477 16.9958 20.9874 17.0126 21.5063 17.0209L21.5565 19.9833C20.9707 19.9749 20.3933 19.9498 19.841 19.908C19.9665 19.2636 20.0335 18.6025 20.0335 17.9498C20.0335 17.6234 20.0167 17.2971 19.9916 16.9624ZM22.0502 15.3557C22.0251 15.3557 21.9916 15.3557 21.9665 15.3557C21.1632 15.3557 20.3849 15.3222 19.6653 15.272C19.3473 14.1506 18.8452 13.0962 18.1674 12.159C19.4226 12.318 20.6862 12.4017 21.9582 12.4017C24.5439 12.4017 27.0126 12.0921 28.8954 11.523C29.523 11.3389 30.1255 11.0962 30.7029 10.8034V12.9958C27.113 13.0962 23.4226 13.8494 22.0502 15.3557ZM23.1548 16.6862C23.1548 16.6778 23.1548 16.6695 23.1632 16.6527C23.2385 16.4268 23.8326 15.8745 25.5649 15.3891C27.1883 14.9289 29.3054 14.6778 31.5314 14.6778H31.6736C34.0669 14.6778 36.41 14.954 38.1172 15.4728C39.8996 16.0084 40.318 16.5607 40.3264 16.6862V16.6946C40.318 16.8201 39.8996 17.3975 38.0418 17.9498C36.3264 18.4603 34.0669 18.7364 31.682 18.7364C29.3724 18.7364 27.1799 18.4686 25.5146 17.9916C23.7155 17.4728 23.2218 16.8954 23.1715 16.7197C23.1548 16.6862 23.1548 16.6862 23.1548 16.6862ZM38.1841 27.205C36.4937 27.7322 34.2259 28.0251 31.8159 28.0251C29.3975 28.0251 27.1381 27.7406 25.4644 27.2301C23.6987 26.6862 23.3305 26.1255 23.3305 26C23.3305 25.9916 23.3305 25.9916 23.3305 25.9833L23.2887 23.5565C23.9582 23.8829 24.6527 24.1339 25.3724 24.318C27.1297 24.7782 29.364 25.0377 31.6569 25.0377C34.2427 25.0377 36.6946 24.728 38.569 24.159C39.1799 23.9749 39.7657 23.7322 40.3264 23.4477V25.9582H40.3347C40.3347 26.0753 39.9498 26.6527 38.1841 27.205ZM40.3431 21.046H40.3347C40.3347 21.1297 40.2845 21.2301 40.2845 21.3222C40.2845 21.4393 39.8912 22.0084 38.0837 22.5607C36.3682 23.0795 34.0837 23.364 31.6653 23.364C27.0293 23.364 23.9079 22.318 23.2552 21.5063L23.2469 20.8034L23.2134 18.8787C23.7992 19.1716 24.41 19.4059 25.0377 19.5816C26.8536 20.1088 29.205 20.3933 31.6736 20.3933C34.2176 20.3933 36.6444 20.0921 38.5105 19.5398C39.1464 19.364 39.7573 19.1213 40.3431 18.8201V21.046Z" fill="#BE2E21"/>
<path d="M9.34277 18.0234H10.7783C11.43 18.0234 11.929 17.8617 12.2754 17.5381C12.6081 17.2236 12.7744 16.7839 12.7744 16.2188C12.7744 15.6582 12.6104 15.223 12.2822 14.9131C11.9359 14.5895 11.4368 14.4277 10.7852 14.4277H9.34277V18.0234ZM9.34277 21.5166V23H7.81152V21.5166H6.49219V20.4639H7.81152V19.2607H6.49219V18.0303H7.81152V13.1357H11.209C12.1478 13.1357 12.9066 13.4274 13.4854 14.0107C14.055 14.5804 14.3398 15.3141 14.3398 16.2119C14.3398 17.1051 14.0505 17.8366 13.4717 18.4062C12.8792 18.9805 12.109 19.2676 11.1611 19.2676H9.34277V20.4639H12.125V21.5166H9.34277Z" fill="#BE2E21"/>
</svg>
