<svg width="42" height="42" viewBox="0 0 42 42" fill="none" xmlns="http://www.w3.org/2000/svg">
<g clip-path="url(#clip0)">
<path d="M9.86893 2.82382V5.74044H6.95239C6.71308 5.74044 6.48356 5.83551 6.31434 6.00473C6.14512 6.17395 6.05005 6.40347 6.05005 6.64278V39.1763C6.05005 39.4157 6.14512 39.6452 6.31434 39.8144C6.48356 39.9836 6.71308 40.0787 6.95239 40.0787H31.2286C31.4679 40.0787 31.6974 39.9836 31.8666 39.8144C32.0358 39.6452 32.1309 39.4157 32.1309 39.1763V36.2595H35.0474C35.2868 36.2595 35.5163 36.1644 35.6855 35.9952C35.8547 35.826 35.9498 35.5965 35.9498 35.3571V2.82382C35.9498 2.58451 35.8547 2.35499 35.6855 2.18577C35.5163 2.01655 35.2868 1.92148 35.0474 1.92148H10.7713C10.532 1.92148 10.3024 2.01655 10.1332 2.18577C9.964 2.35499 9.86893 2.58451 9.86893 2.82382ZM30.3262 38.2738H7.85474V7.54513H9.86893V35.3571C9.86893 35.5965 9.964 35.826 10.1332 35.9952C10.3024 36.1644 10.532 36.2595 10.7713 36.2595H30.3262V38.2738ZM11.6736 3.72616H34.1451V34.455H11.6736V3.72616Z" fill="#BE2E21"/>
<path d="M30.7512 18.1882H15.0676C14.8283 18.1882 14.5988 18.2833 14.4296 18.4525C14.2604 18.6217 14.1653 18.8512 14.1653 19.0905C14.1653 19.3299 14.2604 19.5594 14.4296 19.7286C14.5988 19.8978 14.8283 19.9929 15.0676 19.9929H30.7512C30.9905 19.9929 31.22 19.8978 31.3892 19.7286C31.5585 19.5594 31.6535 19.3299 31.6535 19.0905C31.6535 18.8512 31.5585 18.6217 31.3892 18.4525C31.22 18.2833 30.9905 18.1882 30.7512 18.1882Z" fill="#BE2E21"/>
<path d="M30.7512 14.3693H15.0676C14.8283 14.3693 14.5988 14.4643 14.4296 14.6336C14.2604 14.8028 14.1653 15.0323 14.1653 15.2716C14.1653 15.5109 14.2604 15.7404 14.4296 15.9097C14.5988 16.0789 14.8283 16.174 15.0676 16.174H30.7512C30.9905 16.174 31.22 16.0789 31.3892 15.9097C31.5585 15.7404 31.6535 15.5109 31.6535 15.2716C31.6535 15.0323 31.5585 14.8028 31.3892 14.6336C31.22 14.4643 30.9905 14.3693 30.7512 14.3693Z" fill="#BE2E21"/>
<path d="M15.0676 12.355H25.0229C25.2622 12.355 25.4917 12.26 25.6609 12.0908C25.8301 11.9215 25.9252 11.692 25.9252 11.4527C25.9252 11.2134 25.8301 10.9839 25.6609 10.8146C25.4917 10.6454 25.2622 10.5504 25.0229 10.5504H15.0676C14.8283 10.5504 14.5988 10.6454 14.4296 10.8146C14.2604 10.9839 14.1653 11.2134 14.1653 11.4527C14.1653 11.692 14.2604 11.9215 14.4296 12.0908C14.5988 12.26 14.8283 12.355 15.0676 12.355Z" fill="#BE2E21"/>
<path d="M30.7512 22.0071H15.0676C14.8283 22.0071 14.5988 22.1022 14.4296 22.2714C14.2604 22.4407 14.1653 22.6702 14.1653 22.9095C14.1653 23.1488 14.2604 23.3783 14.4296 23.5475C14.5988 23.7168 14.8283 23.8118 15.0676 23.8118H30.7512C30.9905 23.8118 31.22 23.7168 31.3892 23.5475C31.5585 23.3783 31.6535 23.1488 31.6535 22.9095C31.6535 22.6702 31.5585 22.4407 31.3892 22.2714C31.22 22.1022 30.9905 22.0071 30.7512 22.0071Z" fill="#BE2E21"/>
<path d="M30.7512 25.826H15.0676C14.8283 25.826 14.5988 25.9211 14.4296 26.0903C14.2604 26.2596 14.1653 26.4891 14.1653 26.7284C14.1653 26.9677 14.2604 27.1972 14.4296 27.3664C14.5988 27.5357 14.8283 27.6307 15.0676 27.6307H30.7512C30.9905 27.6307 31.22 27.5357 31.3892 27.3664C31.5585 27.1972 31.6535 26.9677 31.6535 26.7284C31.6535 26.4891 31.5585 26.2596 31.3892 26.0903C31.22 25.9211 30.9905 25.826 30.7512 25.826Z" fill="#BE2E21"/>
</g>
<defs>
<clipPath id="clip0">
<rect width="42" height="42" fill="white"/>
</clipPath>
</defs>
</svg>
