<svg width="42" height="30" viewBox="0 0 42 30" fill="none" xmlns="http://www.w3.org/2000/svg">
<path d="M40.5743 13.4013L37.7143 12.1635L35.2857 7.43757C34.6293 6.14355 33.2978 5.33713 31.8443 5.34651H27.6622V4.16501C27.6622 2.02707 25.9556 0.282959 23.8177 0.282959H3.82604C1.6881 0.282959 0.0002495 2.03645 0.0002495 4.16501V22.2625C-0.0185044 23.5659 1.02234 24.6349 2.32573 24.6536C2.33511 24.6536 2.34448 24.6536 2.36324 24.6536H2.86022C2.86022 24.7474 2.85084 24.7849 2.85084 24.8412C2.84146 27.523 5.00754 29.7078 7.68934 29.7172C10.3711 29.7266 12.556 27.5605 12.5653 24.8787C12.5653 24.8599 12.5653 24.8506 12.5653 24.8318C12.5653 24.7662 12.5653 24.738 12.556 24.6443H28.7124C28.7124 24.738 28.7124 24.7755 28.7124 24.8318C28.7031 27.5136 30.8691 29.6984 33.5509 29.7078C36.2327 29.7172 38.4176 27.5511 38.4269 24.8693C38.4269 24.8506 38.4269 24.8412 38.4269 24.8224C38.4269 24.7568 38.4269 24.7287 38.4269 24.6349H39.6366C40.94 24.6349 41.9996 23.5753 41.9996 22.2719C41.9996 22.2625 41.9996 22.2531 41.9996 22.2344V15.5768C42.0183 14.6578 41.4557 13.7858 40.5743 13.4013ZM7.71747 27.8512C6.06713 27.8512 4.7356 26.5197 4.7356 24.8693C4.7356 23.219 6.06713 21.8874 7.71747 21.8874C9.36781 21.8874 10.6993 23.219 10.6993 24.8693C10.6993 26.5103 9.35844 27.8512 7.71747 27.8512ZM25.7868 22.797H12.1153C11.3276 21.081 9.60224 19.9839 7.71747 19.9933C5.82333 19.9839 4.10735 21.0716 3.31969 22.797H2.36324C2.07255 22.797 1.87564 22.572 1.87564 22.2813V17.4521H25.7868V22.797ZM25.7868 4.17439V15.5768H1.87564V4.17439C1.87564 3.07729 2.72894 2.16772 3.82604 2.16772H23.8177C24.9148 2.1771 25.7962 3.07729 25.7868 4.16501V4.17439ZM27.6622 7.23128H31.8443C32.5851 7.2219 33.279 7.62511 33.626 8.29087L35.5013 11.9197H27.6622V7.23128ZM33.5791 27.8512C31.9287 27.8512 30.5972 26.5197 30.5972 24.8693C30.5972 23.219 31.9287 21.8874 33.5791 21.8874C35.2294 21.8874 36.5609 23.219 36.5609 24.8693C36.5609 26.5103 35.2294 27.8512 33.5791 27.8512ZM40.1335 22.2813C40.1335 22.572 39.9366 22.797 39.646 22.797H37.9769C36.8422 20.3684 33.9541 19.3182 31.5255 20.4528C30.4941 20.931 29.6595 21.7655 29.1813 22.797H27.6622V13.7951H36.8516L39.8335 15.1079C40.021 15.2017 40.1429 15.408 40.1335 15.6143V22.2813Z" fill="#BE2E21"/>
</svg>
