<svg width="43" height="43" viewBox="0 0 43 43" fill="none" xmlns="http://www.w3.org/2000/svg">
<path d="M15.4265 15.8183C15.4265 14.8016 15.791 13.9595 16.52 13.2921C17.2543 12.6299 18.1811 12.2988 19.3007 12.2988C20.3734 12.2988 21.2664 12.6012 21.9798 13.2061C22.6932 13.8109 23.0499 14.5617 23.0499 15.4586C23.0499 16.0895 22.865 16.7047 22.4953 17.3044C22.1673 17.8362 21.5684 18.5479 20.6988 19.4395L17.8791 22.2786V22.3177H23.2296V23.7959H15.5202V22.6071L19.5897 18.4541C20.2771 17.7345 20.7379 17.1818 20.9722 16.796C21.2065 16.4049 21.3237 15.9878 21.3237 15.5446C21.3237 15.044 21.1232 14.6191 20.7223 14.2698C20.3213 13.9204 19.8292 13.7457 19.246 13.7457C18.6316 13.7457 18.116 13.9439 17.6995 14.3401C17.2881 14.7312 17.0824 15.2213 17.0824 15.8105V15.834H15.4265V15.8183Z" fill="#BE2E21"/>
<path d="M29.8141 21.5669H24.1747V20.0339C25.0807 18.3237 26.6767 15.8157 28.9627 12.51H31.4934V20.0965H33.04V21.5669H31.4934V23.7959H29.8141V21.5669ZM25.8071 20.12H29.8297V13.8631H29.7985C27.9343 16.5587 26.6038 18.6313 25.8071 20.0809V20.12Z" fill="#BE2E21"/>
<path d="M26.8525 32.1859C25.1317 32.1859 23.442 31.9175 21.8408 31.3898C21.0562 31.1229 20.0916 31.3677 19.6128 31.8582L16.4523 34.2376C12.7871 32.2864 10.5294 30.0354 8.5996 26.4074L10.9152 23.3376C11.5168 22.7384 11.7326 21.8631 11.4741 21.0418C10.9427 19.4365 10.6727 17.7521 10.6727 16.0351C10.6728 14.7947 9.66097 13.7856 8.41734 13.7856H3.25544C2.01181 13.7856 1 14.7947 1 16.0351C1 30.2522 12.5973 41.8184 26.8525 41.8184C28.0962 41.8184 29.108 40.8093 29.108 39.569V34.4352C29.1079 33.195 28.0961 32.1859 26.8525 32.1859Z" stroke="#BE2E21" stroke-width="2"/>
<path d="M41.0235 19C41.0235 9.61116 33.5019 2 24.2235 2C16.6648 2 10.272 7.05133 8.16194 14H6.104C8.27306 5.93232 15.5637 0 24.2235 0C34.5935 0 43 8.50659 43 19C43 27.763 37.1375 35.1404 29.1647 37.3352V35.2528C36.0316 33.1177 41.0235 26.6487 41.0235 19Z" fill="#BE2E21"/>
</svg>
