<svg width="43" height="43" viewBox="0 0 43 43" fill="none" xmlns="http://www.w3.org/2000/svg">
<path fill-rule="evenodd" clip-rule="evenodd" d="M21.1 1.90871C14.1439 1.90871 8.05074 5.60941 4.68434 11.1527H11.0521C11.5516 11.1527 11.9564 11.5576 11.9564 12.057C11.9564 12.5565 11.5516 12.9613 11.0521 12.9613H3.14908C2.64964 12.9613 2.24477 12.5565 2.24477 12.057V4.01876C2.24477 3.51932 2.64964 3.11445 3.14908 3.11445C3.64851 3.11445 4.05338 3.51932 4.05338 4.01876V8.83334C7.86575 3.54473 14.08 0.100098 21.1 0.100098C32.698 0.100098 42.1 9.50212 42.1 21.1001C42.1 32.6981 32.698 42.1001 21.1 42.1001C9.50199 42.1001 0.0999756 32.6981 0.0999756 21.1001C0.0999756 20.6007 0.504847 20.1958 1.00428 20.1958C1.50372 20.1958 1.90859 20.6007 1.90859 21.1001C1.90859 31.6992 10.5009 40.2915 21.1 40.2915C31.6991 40.2915 40.2914 31.6992 40.2914 21.1001C40.2914 10.501 31.6991 1.90871 21.1 1.90871Z" fill="#BE2E21"/>
<path d="M21.623 23.2373C20.3574 23.2373 19.3057 22.8857 18.4678 22.1826C17.6299 21.4854 17.1816 20.583 17.123 19.4756H19.0039C19.0742 20.1025 19.3555 20.6123 19.8477 21.0049C20.334 21.3975 20.9316 21.5938 21.6406 21.5938C22.4375 21.5938 23.0879 21.3418 23.5918 20.8379C24.0957 20.334 24.3477 19.6836 24.3477 18.8867C24.3477 18.0898 24.0986 17.4365 23.6006 16.9268C23.0967 16.4111 22.4492 16.1533 21.6582 16.1533C20.4922 16.1533 19.6455 16.5986 19.1182 17.4893H17.3164L17.9844 10.3174H25.5342V11.9785H19.5664L19.2148 15.8721H19.2588C19.8506 15.0166 20.7939 14.5889 22.0889 14.5889C23.3076 14.5889 24.3096 14.9873 25.0947 15.7842C25.8799 16.5869 26.2725 17.6035 26.2725 18.834C26.2725 20.1348 25.8389 21.1924 24.9717 22.0068C24.1104 22.8271 22.9941 23.2373 21.623 23.2373Z" fill="#BE2E21"/>
<path d="M12.4033 32V26.6631H13.9463L15.5527 30.4326H15.5918L17.2031 26.6631H18.7168V32H17.5547V28.3428H17.5156L15.9922 31.7607H15.123L13.5996 28.3428H13.5605V32H12.4033ZM19.8545 32V26.6631H21.0459V30.2666H21.085L23.4873 26.6631H24.6836V32H23.4873V28.3721H23.4482L21.0459 32H19.8545ZM29.376 29.7246H27.0322V32H25.8213V26.6631H27.0322V28.7773H29.376V26.6631H30.582V32H29.376V29.7246Z" fill="#BE2E21"/>
</svg>
