<svg width="42" height="36" viewBox="0 0 42 36" fill="none" xmlns="http://www.w3.org/2000/svg">
<path fill-rule="evenodd" clip-rule="evenodd" d="M14.8494 7.6242C15.4585 7.21604 16.1591 7 16.8736 7H32.2587C32.9605 7 33.65 7.201 34.2586 7.58296C35.0566 8.08379 35.6729 8.86892 36.0046 9.80699L37.9029 15.1767L40.8593 14.3821C41.353 14.2493 41.8517 14.5792 41.9731 15.1188C42.0946 15.6583 41.7928 16.2033 41.299 16.336L38.5719 17.0691L38.8847 17.9536L39.7155 18.8616C40.5274 19.7489 40.9835 20.9523 40.9835 22.2071V34.9939C40.9835 35.5495 40.5713 36 40.0629 36H33.0402C32.5318 36 32.1196 35.5495 32.1196 34.9939V30.5069H17.257V34.9939C17.257 35.5495 16.8448 36 16.3364 36H9.16756C8.65911 36 8.24694 35.5495 8.24694 34.9939V22.2071C8.24694 20.9523 8.70307 19.7489 9.51497 18.8616L10.3458 17.9536L10.5517 17.3713H7.92062C7.41217 17.3713 7 16.9208 7 16.3652C7 15.8095 7.41217 15.359 7.92062 15.359H11.263L13.2613 9.70691C13.5673 8.84115 14.1253 8.10935 14.8494 7.6242ZM11.5157 19.5207L10.8169 20.2844C10.3503 20.7944 10.0882 21.486 10.0882 22.2071V28.4947H39.1423V22.2071C39.1423 21.486 38.8801 20.7944 38.4135 20.2844L37.7147 19.5207H11.5157ZM36.7534 17.5085L34.2871 10.5322C34.1075 10.0242 33.7737 9.59908 33.3416 9.32789C33.0121 9.12105 32.6387 9.01222 32.2587 9.01222H16.8736C16.4988 9.01222 16.1313 9.12554 15.8118 9.33964C15.432 9.59412 15.1393 9.97798 14.9788 10.4321L12.477 17.5085H36.7534ZM39.1423 30.5069H33.9608V33.9878H39.1423V30.5069ZM10.0882 30.5069V33.9878H15.4158V30.5069H10.0882Z" fill="#BE2E21"/>
<rect x="31.6033" y="22.2006" width="6.31152" height="3.15576" rx="1.57788" fill="#BE2E21"/>
<rect x="11.7972" y="22.2374" width="6.31152" height="3.15576" rx="1.57788" fill="#BE2E21"/>
<circle cx="11" cy="11" r="10.1" fill="white" stroke="#BE2E21" stroke-width="1.8"/>
<path d="M9.88359 11.0234H11.3191C11.9708 11.0234 12.4699 10.8617 12.8162 10.5381C13.1489 10.2236 13.3152 9.78385 13.3152 9.21875C13.3152 8.6582 13.1512 8.22298 12.823 7.91309C12.4767 7.58952 11.9777 7.42773 11.326 7.42773H9.88359V11.0234ZM9.88359 14.5166V16H8.35234V14.5166H7.033V13.4639H8.35234V12.2607H7.033V11.0303H8.35234V6.13574H11.7498C12.6886 6.13574 13.4474 6.42741 14.0262 7.01074C14.5958 7.5804 14.8807 8.31413 14.8807 9.21191C14.8807 10.1051 14.5913 10.8366 14.0125 11.4062C13.42 11.9805 12.6499 12.2676 11.7019 12.2676H9.88359V13.4639H12.6658V14.5166H9.88359Z" fill="#BE2E21"/>
</svg>
